HIERARCHY
ROOT Hips
{
  OFFSET 0 0 0
  CHANNELS 6 Xposition Yposition Zposition Zrotation Yrotation Xrotation
  JOINT LeftThigh
  {
    OFFSET 8.409438 0 -5.917753
    CHANNELS 3 Zrotation Yrotation Xrotation
    JOINT LeftLeg
    {
      OFFSET 0 0 -42.358652
      CHANNELS 3 Zrotation Yrotation Xrotation
      JOINT LeftFoot
      {
        OFFSET 0 0 -39.357303
        CHANNELS 3 Zrotation Yrotation Xrotation
      }
    }
  }
  JOINT RightThigh
  {
    OFFSET -8.409438 0 -5.917753
    CHANNELS 3 Zrotation Yrotation Xrotation
    JOINT RightLeg
    {
      OFFSET 0 0 -42.358652
      CHANNELS 3 Zrotation Yrotation Xrotation
      JOINT RightFoot
      {
        OFFSET 0 0 -39.357303
        CHANNELS 3 Zrotation Yrotation Xrotation
      }
    }
  }
  JOINT SpineLow
  {
    OFFSET 0 0 4.719101
    CHANNELS 3 Zrotation Yrotation Xrotation
    JOINT SpineMid
    {
      OFFSET 0 0 12.899191
      CHANNELS 3 Zrotation Yrotation Xrotation
      JOINT Chest
      {
        OFFSET 0 0 12.899191
        CHANNELS 3 Zrotation Yrotation Xrotation
        JOINT LeftShoulder
        {
          OFFSET 7.550562 1.41573 9.438202
          CHANNELS 3 Zrotation Yrotation Xrotation
          JOINT LeftArm
          {
            OFFSET 9.155056 0 4.247191
            CHANNELS 3 Zrotation Yrotation Xrotation
            JOINT LeftForearm
            {
              OFFSET 0 0 25.771955
              CHANNELS 3 Zrotation Yrotation Xrotation
              JOINT LeftHand
              {
                OFFSET 0 0 25.197169
                CHANNELS 3 Zrotation Yrotation Xrotation
              }
            }
          }
        }
        JOINT RightShoulder
        {
          OFFSET -7.550562 1.41573 9.438202
          CHANNELS 3 Zrotation Yrotation Xrotation
          JOINT RightArm
          {
            OFFSET -9.155056 0 4.247191
            CHANNELS 3 Zrotation Yrotation Xrotation
            JOINT RightForearm
            {
              OFFSET 0 0 -25.771955
              CHANNELS 3 Zrotation Yrotation Xrotation
              JOINT RightHand
              {
                OFFSET 0 0 -25.197169
                CHANNELS 3 Zrotation Yrotation Xrotation
              }
            }
          }
        }
        JOINT Neck
        {
          OFFSET 0 0 15.101124
          CHANNELS 3 Zrotation Yrotation Xrotation
          JOINT Head
          {
            OFFSET 0 0 11.325843
            CHANNELS 3 Zrotation Yrotation Xrotation
            End Site
            {
              OFFSET 0 0 14.157303
            }
          }
        }
      }
    }
  }
}
MOTION
Frames: 13
Frame Time: 0.0
0.0  89.887642  0.0  4.635098  11.092144  -96.713431  -0.712293  -5.503329  4.463164  -2.979733  0.881535  19.262635  3.882595  1.610014  2.860794  -20.742291  15.459449  -3.642318  -9.112638  6.868728  16.154748  1.250378  1.230556  -1.098015  5.175639  -0.5235  1.228893  14.119059  -1.685142  3.230341  14.119059  -1.685142  3.230341  -7.566056  13.460742  -3.206635  138.034591  32.605542  -153.276436  -24.715718  30.449291  84.782974  73.092881  -6.90901  7.957319  -1.37473  -1.328512  14.376786  -5.829787  47.961345  -53.786754  31.952398  -37.663673  -120.224854  69.835302  -9.497959  -10.738238  -32.466686  4.589681  3.709437  -24.365773  3.256069  3.035466  
0.0  89.887642  0.0  4.216011  4.833871  -96.930805  -0.701005  -5.792053  6.157324  1.680153  0.031469  18.322668  4.058912  1.680305  2.729889  -21.400165  15.068389  -5.451397  -7.436277  5.537949  16.050184  1.51315  1.193678  -0.811025  5.896556  -0.569435  1.140022  16.090378  -1.822303  2.957281  16.090377  -1.822303  2.95728  -5.244645  11.674399  -1.859134  143.494449  30.991604  -155.074681  -21.421699  32.233895  91.222324  71.764951  -8.289133  7.735886  -1.743189  -2.669891  12.992987  -13.42117  49.775077  -64.033999  19.937169  -34.675535  -113.884709  72.64191  -8.560967  -6.040936  -31.173194  4.455455  3.8778  -23.397377  3.153514  3.144624  
0.0  89.887642  0.0  3.752937  -1.535077  -97.348794  0.174118  -6.038209  7.979423  5.405089  -0.667751  17.525661  4.547862  1.858107  2.550063  -21.701427  14.181965  -6.690611  -5.893844  5.010906  16.037954  1.893408  1.338037  -0.74857  6.331466  -0.579528  1.09303  17.280289  -1.856072  2.813857  17.280288  -1.856071  2.813857  -2.492531  9.241562  -1.3591  151.470684  28.366582  -157.933744  -18.504099  33.74618  97.169951  69.68  -9.120293  10.588129  -1.076468  -3.701476  11.643  -21.088916  50.786247  -75.094424  7.394193  -30.017996  -106.755149  74.131557  -8.364337  -1.601797  -28.91621  3.961326  3.917668  -21.704885  2.793042  3.133352  
0.0  89.887642  0.0  2.786813  -10.128799  -98.97369  3.75916  -7.062339  10.813216  8.410099  -1.174957  16.959754  5.541238  2.159466  2.480892  -18.587258  12.668703  -5.967063  -5.240006  5.214434  16.009912  3.311731  1.2962  -0.770609  6.848195  -0.780729  1.326706  18.677547  -2.487357  3.374613  18.677547  -2.487357  3.374613  1.348387  8.030538  -1.733168  158.756655  26.414166  -163.048782  -14.203583  35.943163  101.943998  67.199931  -12.197327  14.553347  1.564254  -3.76449  9.064366  -29.353716  51.426154  -85.628418  -4.304203  -24.109806  -100.324261  74.133776  -8.932394  1.744552  -26.004616  3.136526  3.339086  -19.516371  2.215049  2.643093  
0.0  89.887642  0.0  2.298125  -15.782808  -99.560085  6.098146  -7.595991  11.965684  10.791963  -1.538188  17.000053  5.660228  2.035005  2.594137  -17.11095  11.409928  -5.858349  -4.835191  5.616215  15.661286  4.859732  1.05019  -0.772109  7.116875  -0.79181  1.436787  19.407134  -2.562331  3.658303  19.407135  -2.562331  3.658303  3.902279  7.797877  -1.150606  161.362527  24.930111  -169.904278  -11.416495  39.333952  106.321191  66.038695  -15.164224  17.620657  2.204966  -3.359016  5.137458  -36.63736  52.564051  -94.331977  -13.923455  -18.371084  -95.298427  73.743809  -9.435305  4.089474  -24.017101  2.015412  2.785215  -18.020576  1.40463  2.171983  
0.0  89.887642  0.0  1.981164  -20.431968  -100.125976  9.606553  -8.658079  12.540606  11.253087  -1.721968  17.631149  5.692643  2.018824  2.6469  -15.019209  10.599809  -5.420838  -4.214564  5.473609  15.237158  5.588202  0.700146  -0.802655  7.644124  -0.586638  1.307539  20.861417  -1.995054  3.34988  20.861418  -1.995054  3.34988  2.605155  6.331963  0.98307  163.439907  23.324816  -176.510236  -15.385656  42.523028  106.936225  63.230359  -15.005843  21.639511  -0.253995  -3.872689  3.043686  -44.735383  52.508091  -103.261563  -20.774515  -13.760736  -91.173139  73.750925  -8.520358  5.711926  -23.723636  0.253122  3.57821  -17.794912  0.05091  2.69832  
0.0  89.887642  0.0  1.657331  -23.97621  -100.487321  13.35506  -10.249676  12.76318  10.259729  -1.409653  18.271084  5.707067  2.036028  2.729559  -12.743727  9.933849  -4.921769  -3.598599  4.999075  14.796778  5.626106  0.512595  -0.840659  8.068935  -0.250722  1.049591  22.041525  -1.023867  2.74959  22.041523  -1.023867  2.74959  0.695575  3.079136  3.028029  166.022007  20.033587  177.939873  -17.630635  44.831688  106.234719  62.03667  -16.404416  21.647511  -3.169901  -4.670932  1.23598  -53.002798  51.645647  -110.746148  -25.329087  -10.869506  -88.22004  74.864176  -7.643086  8.139212  -23.828364  -1.92642  4.706854  -17.85606  -1.631532  3.460869  
0.0  89.887642  0.0  1.193869  -26.629259  -100.666774  16.358201  -12.058186  12.628922  8.803682  -0.738721  19.009817  5.783281  2.052188  2.928889  -10.422438  9.101551  -4.19591  -3.801388  4.85334  14.235503  5.693866  0.361394  -0.97965  8.093613  -0.068471  0.827358  22.118061  -0.459416  2.209805  22.118062  -0.459416  2.209805  2.382958  0.152762  5.377393  166.255157  15.967878  174.103475  -19.955501  46.626526  103.579755  62.921579  -18.461019  19.813036  -4.131679  -3.959741  -0.630533  -60.984619  50.331215  -116.025566  -28.353108  -7.940808  -85.82773  75.26339  -7.191635  9.668601  -22.878565  -3.736266  4.40836  -17.126976  -2.972401  3.170228  
0.0  89.887642  0.0  0.555948  -28.208024  -100.497516  18.006052  -13.365546  11.985751  7.467976  -0.139191  19.904513  6.080825  1.9804  3.153052  -8.487116  8.126031  -3.333597  -5.357565  4.984321  13.461227  5.881661  0.227901  -1.314298  7.974294  -0.015605  0.691437  21.794537  -0.268347  1.861355  21.794536  -0.268347  1.861355  3.590523  -0.148143  7.863121  166.041584  13.293659  171.727955  -23.846384  47.180886  98.796808  64.284616  -19.60959  18.596426  -5.235222  -1.504503  -2.219395  -67.474334  47.944146  -118.676118  -29.305975  -4.5753  -84.677114  74.613167  -6.9608  11.271307  -22.716972  -4.339988  5.254279  -16.993775  -3.45628  3.783327  
0.0  89.887642  0.0  -0.321778  -28.556947  -99.83595  17.941633  -14.026103  10.746604  6.988026  0.272642  21.074684  6.434198  1.905436  3.065959  -7.561599  7.280543  -2.904925  -7.485872  4.979736  12.545583  6.011587  0.203818  -1.447541  7.952643  0.210425  0.756018  21.742058  0.321297  2.109606  21.742058  0.321297  2.109606  3.754624  -1.048604  8.37618  163.871299  10.342785  170.882248  -28.064993  46.578722  93.570049  65.683444  -19.93788  16.702124  -8.180436  -0.106685  -5.541073  -73.798619  46.596727  -121.115321  -29.891149  -0.952976  -83.682076  73.212537  -6.114054  12.571247  -23.110007  -5.556823  4.608752  -17.278119  -4.349493  3.248493  
0.0  89.887642  0.0  -1.357668  -28.385774  -98.790481  17.588851  -14.743811  9.242357  6.961394  0.522223  21.893108  6.427884  2.03693  2.982977  -7.250612  6.48467  -2.832108  -8.805256  4.883666  11.41076  6.049015  0.24411  -1.082462  7.497293  0.255145  0.625656  20.498498  0.497047  1.769938  20.498497  0.497047  1.769937  5.051895  0.049024  9.357093  162.185823  8.842587  170.60853  -32.234069  46.735651  87.857256  65.943663  -19.625969  15.028762  -8.878452  1.306631  -7.427596  -81.264158  46.555168  -125.0382  -30.861963  1.964319  -82.566175  71.8362  -4.899951  13.977438  -22.091724  -5.601099  4.429623  -16.515959  -4.367907  3.121225  
0.0  89.887642  0.0  -2.273583  -27.646863  -97.264995  17.335991  -15.050635  7.917736  6.883011  0.516706  21.722585  6.297264  2.159119  2.995151  -7.688208  5.491133  -3.240631  -9.294642  5.013608  10.536277  6.229898  0.235636  -1.040228  6.745061  0.198995  0.479698  18.440287  0.406007  1.354729  18.440288  0.406007  1.354729  7.835575  1.783289  9.799441  159.967732  6.83377  170.883725  -38.800541  52.097221  82.078917  55.558584  -21.869331  20.120418  -8.835531  2.582409  -9.65086  -88.594196  47.245652  -130.301514  -31.826642  3.975194  -81.40616  70.480989  -3.508431  15.323802  -20.057255  -4.868964  4.143538  -15.00166  -3.792718  2.949325  
0.0  89.887642  0.0  -5.251202  -27.263949  -94.464041  18.038907  -17.164119  5.888222  6.523369  0.637107  21.177369  6.184252  2.155516  2.88645  -8.162697  2.400003  -3.939414  -9.130657  5.24114  10.10533  6.394127  0.291391  -1.154783  6.107418  0.083101  0.274266  16.694742  0.156534  0.765089  16.694742  0.156534  0.765089  9.832442  1.976955  8.064981  158.798992  5.404138  170.85207  -49.109637  59.580883  73.766872  48.262627  -18.127632  28.411921  -9.404037  2.684815  -12.364636  -93.723752  47.940759  -134.232953  -32.493297  5.96014  -80.609653  69.19523  -2.646521  16.605521  -18.072663  -4.896418  3.614572  -13.517807  -3.783235  2.566765  
